
<svg width="178px" height="51px" viewBox="31 16 178 51" version="1.1" xmlns="http://www.w3.org/2000/svg" xmlns:xlink="http://www.w3.org/1999/xlink">
    <!-- Generator: Sketch 42 (36781) - http://www.bohemiancoding.com/sketch -->
    <desc>Created with Sketch.</desc>
    <defs>
        <polygon id="path-1" points="24.2511976 34.730479 24.2511976 0.143652695 0.163532934 0.143652695 0.163532934 34.730479"></polygon>
        <polygon id="path-3" points="34.8471614 0.0359281437 0 0.0359281437 0 41.4622063 34.8471614 41.4622063 34.8471614 0.0359281437"></polygon>
    </defs>
    <g id="ohHeyLogo" stroke="none" stroke-width="1" fill="none" fill-rule="evenodd" transform="translate(31.000000, 16.000000)">
        <path d="M61.0294012,27.2111377 C61.0294012,22.9847904 57.884491,20.2820958 54.0512575,20.2820958 C50.2674251,20.2820958 47.1222156,22.9847904 47.1222156,27.2111377 C47.1222156,31.5353892 50.2674251,34.3365868 54.0512575,34.3365868 C57.884491,34.3365868 61.0294012,31.5353892 61.0294012,27.2111377 M42.1096407,27.2111377 C42.1096407,19.9380838 47.5644311,15.3189222 54.0512575,15.3189222 C60.5871856,15.3189222 66.0910778,19.9380838 66.0910778,27.2111377 C66.0910778,34.4841916 60.5871856,39.2509581 54.0512575,39.2509581 C47.5644311,39.2509581 42.1096407,34.4841916 42.1096407,27.2111377" id="Fill-1" fill="#FFFFFF"></path>
        <path d="M74.5439521,38.7595509 L69.4822754,38.7595509 L69.4822754,3.32811377 L74.5439521,3.32811377 L74.5439521,17.7930838 C76.6909581,15.3772156 79.9241916,15.3772156 81.7667066,15.3772156 C87.6146108,15.3772156 91.1050299,19.1520659 91.1050299,25.687994 L91.1050299,38.7595509 L86.0433533,38.7595509 L86.0433533,25.9826048 C86.0433533,22.3951796 83.7825749,20.4472754 80.9325749,20.4326048 C78.2993413,20.4188323 74.5439521,21.9038623 74.5439521,26.4248204 L74.5439521,38.7595509 Z" id="Fill-3" fill="#FFFFFF"></path>
        <path d="M108.550838,38.7595509 L103.489461,38.7595509 L103.489461,3.32811377 L108.550838,3.32811377 L108.550838,17.7930838 C110.698144,15.3772156 113.931377,15.3772156 115.773593,15.3772156 C121.621497,15.3772156 125.111916,19.1520659 125.111916,25.687994 L125.111916,38.7595509 L120.05024,38.7595509 L120.05024,25.9826048 C120.05024,22.3951796 117.789461,20.4472754 114.939461,20.4326048 C112.306527,20.4188323 108.550838,21.9038623 108.550838,26.4248204 L108.550838,38.7595509 Z" id="Fill-5" fill="#FFFFFF"></path>
        <g id="Group-9" transform="translate(152.395210, 15.233533)">
            <mask id="mask-2" fill="white">
                <use xlink:href="#path-1"></use>
            </mask>
            <g id="Clip-8"></g>
            <polygon id="Fill-7" fill="#FFFFFF" mask="url(#mask-2)" points="9.86922156 34.730479 4.56173653 34.730479 9.52550898 22.4448503 0.163532934 0.143652695 5.66832335 0.15502994 12.2282036 16.3020359 18.7686228 0.143652695 24.2512575 0.143652695"></polygon>
        </g>
        <path d="M146.870389,25.22 C146.377575,21.7149102 143.767994,19.6984431 140.320689,19.6984431 C136.77518,19.6984431 134.017695,21.7631138 133.52518,25.22 L146.870389,25.22 Z M151.794341,28.8208982 L133.52518,28.8208982 C134.017695,32.2777844 136.873683,34.4385629 140.567096,34.4385629 C143.127874,34.4385629 145.639251,33.2858683 146.820988,31.2211976 C148.101228,31.7978443 149.627874,32.4217964 150.957216,32.9981437 C148.938353,36.9349701 144.654222,38.759521 140.320689,38.759521 C133.771287,38.759521 128.502126,34.1023353 128.502126,26.9963473 C128.502126,19.8903593 133.771287,15.3771856 140.320689,15.3771856 C146.870389,15.3771856 151.843743,19.8903593 151.843743,26.9963473 C151.843743,27.524491 151.843743,28.3409581 151.794341,28.8208982 L151.794341,28.8208982 Z" id="Fill-10" fill="#FFFFFF"></path>
        <path d="M21.0876946,33.7524371 C21.1351946,33.7334371 21.1821946,33.7164371 21.2296946,33.6964371 C21.1906946,33.7124371 21.1511946,33.7264371 21.1121946,33.7419371 C21.1041946,33.7454371 21.0956946,33.7489371 21.0876946,33.7524371" id="Fill-12" fill="#38DDF3"></path>
        <g id="Group-16" transform="translate(0.000000, 0.263473)">
            <mask id="mask-4" fill="white">
                <use xlink:href="#path-3"></use>
            </mask>
            <g id="Clip-15"></g>
            <path d="M24.0001198,25.1334132 C24.6111976,26.6082635 24.9255689,31.1708383 21.7597006,33.1175449 C21.5785629,33.24 21.3824551,33.3462874 21.1728743,33.4331138 L21.0037126,33.5031737 C21.0321557,33.4911976 21.0597006,33.4786228 21.0875449,33.4666467 C17.1567066,35.0205389 13.7863473,31.2067665 13.1351497,29.6349102 L13.1456287,29.6307186 C13.1061078,29.5531737 13.0683832,29.4741317 13.0345509,29.3923952 C12.3387425,27.7124551 13.1363473,25.7861078 14.8162874,25.09 C15.7863473,24.6882036 16.8381437,24.7852096 17.6881437,25.2615569 C17.9522156,24.3235329 18.6273653,23.5112575 19.5974251,23.1091617 C21.2773653,22.4133533 23.2034132,23.2109581 23.899521,24.8908982 C23.9333533,24.9726347 23.9626946,25.0549701 23.9896407,25.1379042 L24.0001198,25.1334132 Z M33.4803593,13.7926946 C33.2321557,13.7435928 32.9974251,13.7187425 32.7824551,13.7193413 C31.6953293,13.7229341 31.2977246,14.3591617 31.0276647,14.7908982 C30.7216766,15.2804192 30.2926347,16.3843114 29.8773653,17.4513772 C29.4929341,18.44 29.0956287,19.4618563 28.7426347,20.144491 C28.4597006,20.6917964 28.0462275,20.9699401 27.5135928,20.9717365 C27.470479,20.9717365 27.4300599,20.9702395 27.3932335,20.9684431 C26.914491,20.9462874 26.5267665,20.6579641 26.3291617,20.1768263 C25.0396407,17.0432934 22.2064072,10.1920958 20.3360479,5.66934132 C19.4162874,3.44538922 18.7294611,1.78371257 18.5728743,1.40347305 C18.3195808,0.788502994 17.5815569,0.136407186 16.7120958,0.139101796 C16.4564072,0.14 16.1941317,0.19508982 15.9327545,0.302275449 C14.3950299,0.935209581 14.6791617,2.57173653 14.8315569,2.94269461 C15.1123952,3.62562874 19.658503,14.6735329 20.1677844,15.9109581 C20.3369461,16.3232335 20.1917365,16.9028743 19.6623952,17.1205389 C19.5477246,17.1678443 19.4318563,17.1917964 19.3180838,17.1923952 C19.1543114,17.1926946 18.7507186,17.1382036 18.5384431,16.6223353 C18.099521,15.5561677 17.5312575,14.151976 16.908503,12.6142515 C15.2489222,8.5154491 13.1833533,3.4145509 12.2007186,1.31934132 C12.0441317,0.985209581 11.36,0.0325149701 10.3076048,0.0358083832 C10.0620958,0.0367065868 9.80760479,0.0905988024 9.55071856,0.195988024 C8.39173653,0.672934132 8.12856287,2.05497006 8.44982036,2.83610778 L9.36538922,5.05736527 C10.805509,8.54988024 13.5474251,15.2013772 14.755509,18.1373054 C14.8632934,18.3995808 14.8513174,18.6774251 14.7216766,18.9199401 C14.6195808,19.1103593 14.448024,19.2663473 14.251018,19.3471856 C14.1501198,19.3888024 14.0336527,19.4112575 13.914491,19.4115569 C13.5276647,19.4127545 13.1941317,19.1977844 13.0441317,18.8510778 C11.2917365,14.7977844 8.49113772,7.85377246 7.43664671,5.2397006 C7.23335329,4.73550898 7.09862275,4.40107784 7.05341317,4.29179641 C6.87317365,3.85347305 6.27017964,3.02532934 5.27916168,3.02832335 C5.01538922,3.02922156 4.73694611,3.0894012 4.45161677,3.20646707 C2.94652695,3.82592814 3.16958084,5.33071856 3.36628743,5.80916168 C3.43305389,5.97113772 3.61419162,6.41754491 3.87706587,7.0642515 C4.92467066,9.64389222 7.37766467,15.6846108 8.89592814,19.2759281 C9.19652695,19.9876048 9.48065868,20.685509 9.70850299,21.2453892 C9.80191617,21.4756287 9.8860479,21.682515 9.95790419,21.8564671 C10.064491,22.1154491 10.0860479,22.3561677 10.0222754,22.5717365 C9.96898204,22.7510778 9.83245509,22.9950898 9.48305389,23.1388024 C9.37556886,23.1828144 9.24772455,23.2073653 9.12227545,23.2079641 C8.73844311,23.2091617 8.42077844,22.994491 8.27257485,22.6343114 L7.98844311,21.9441916 C7.75071856,21.3678443 7.46508982,20.6747305 7.19053892,20.0043713 C6.5597006,18.4633533 5.87526946,16.8085629 5.21,15.1998802 C4.74652695,14.0798204 4.29263473,12.9819162 3.87197605,11.9600599 C3.62227545,11.3522754 2.84892216,10.7253293 1.98754491,10.7283234 C1.74652695,10.7289222 1.50520958,10.7783234 1.26988024,10.8750299 C0.21508982,11.3091617 -0.216347305,12.501976 0.103113772,13.2783234 C0.61,14.5109581 1.21688623,15.9938922 1.87946108,17.6127545 C4.2839521,23.4882036 7.57706587,31.5352096 9.2839521,35.3947904 C10.6243713,38.4253293 14.1031138,41.4765269 18.854012,41.4621557 L18.8543114,41.4621557 C20.3626946,41.4573653 21.8977246,41.1379042 23.4168862,40.5127545 C25.3920359,39.6995808 27.8531138,38.4211377 29.361497,35.7259281 C32.1465269,30.7510778 33.9387425,21.5055689 34.7594012,16.437006 C34.7854491,16.2759281 34.8031138,16.1669461 34.8123952,16.1163473 C35.0315569,14.9031737 34.1698802,13.9298204 33.4803593,13.7926946 L33.4803593,13.7926946 Z" id="Fill-14" fill="#FFFFFF" mask="url(#mask-4)"></path>
        </g>
        <path d="M19.5974251,23.3726946 C18.6273653,23.774491 17.9522156,24.5870659 17.6884431,25.5250898 C16.8381437,25.0487425 15.7863473,24.9514371 14.8162874,25.3535329 C13.1363473,26.0496407 12.3387425,27.975988 13.0348503,29.6559281 C13.0683832,29.7376647 13.1061078,29.8164072 13.1456287,29.8939521 L13.1351497,29.8984431 C13.7863473,31.4702994 17.1567066,35.2840719 21.0878443,33.7298802 C21.0926347,33.7277844 21.0974251,33.7256886 21.1022156,33.7235928 C21.1258683,33.7146108 21.149521,33.7062275 21.1728743,33.6963473 C21.3824551,33.609521 21.5785629,33.5035329 21.7597006,33.3810778 C24.9255689,31.4340719 24.6111976,26.8717964 24.0001198,25.3969461 L23.9896407,25.4011377 C23.9626946,25.318503 23.9333533,25.2361677 23.899521,25.1544311 C23.2034132,23.4741916 21.2773653,22.6765868 19.5974251,23.3726946" id="Fill-17" fill="#FF5C64"></path>
        <path d="M20.7581737,32.8918563 L20.742006,32.8987425 C19.3216467,33.4550299 17.8557784,33.2337725 16.3851198,32.2406587 C15.3818263,31.5631138 14.642006,30.6903593 14.242006,30.062515 L13.9470958,29.4849701 C13.9141617,29.42 13.887515,29.3631138 13.8659581,29.3113174 C13.3608683,28.0924551 13.9417066,26.6900599 15.1608683,26.1849701 C15.842006,25.9026347 16.6027844,25.9484431 17.247994,26.3101198 L18.2447006,26.8688024 L18.5545808,25.7688024 C18.7548802,25.0568263 19.2605689,24.4864671 19.9417066,24.2041317 C21.1608683,23.6990419 22.5632635,24.2798802 23.0680539,25.4987425 C23.0896108,25.5505389 23.1111677,25.609521 23.1339222,25.6795808 L23.3348204,26.2981437 C23.4833234,26.9646108 23.5752395,27.9783832 23.4066766,29.0753892 C23.2339222,30.2020359 22.7258383,31.730479 21.2884132,32.6143114 L21.2716467,32.6247904 L21.255479,32.6355689 C21.1228443,32.7253892 20.9791317,32.8023353 20.8291317,32.8646108 L20.7581737,32.8918563 Z" id="Fill-19" fill="#FF5C64"></path>
        <path d="M21.0037725,33.8134671 L21.2857725,33.6964671 C21.2382725,33.7164671 21.1912725,33.7334671 21.1437725,33.7524671 C21.0972725,33.7724671 21.0512725,33.7934671 21.0037725,33.8134671" id="Fill-21" fill="#FFFFFF"></path>
    </g>
</svg>