
<svg width="56px" height="56px" viewBox="384 43 56 56" version="1.1" xmlns="http://www.w3.org/2000/svg" xmlns:xlink="http://www.w3.org/1999/xlink">
    <!-- Generator: Sketch 42 (36781) - http://www.bohemiancoding.com/sketch -->
    <desc>Created with Sketch.</desc>
    <defs>
        <polygon id="path-1" points="0.00016969697 0 55.7522424 0 55.7522424 55.760303 0.00016969697 55.760303 0.00016969697 0"></polygon>
    </defs>
    <g id="searchIcon" stroke="none" stroke-width="1" fill="none" fill-rule="evenodd" transform="translate(384.000000, 43.000000)">
        <mask id="mask-2" fill="white">
            <use xlink:href="#path-1"></use>
        </mask>
        <g id="Clip-2"></g>
        <path d="M19.1731697,22.6496667 C19.1731697,14.9662121 25.4294727,8.70990909 33.1133515,8.70990909 C40.7972303,8.70990909 47.0535333,14.9662121 47.0535333,22.6496667 C47.0535333,30.3335455 40.7972303,36.5898485 33.1133515,36.5898485 C25.4184424,36.5898485 19.1731697,30.3335455 19.1731697,22.6496667 M1.53062424,54.2323939 C2.55644242,55.2582121 3.88389697,55.7605152 5.22195758,55.7605152 C6.56044242,55.7605152 7.89850303,55.2471818 8.91329091,54.2323939 L21.2252303,41.9204545 C24.6823818,44.0620303 28.730503,45.3105758 33.1023212,45.3105758 C45.6149273,45.3105758 55.7522,35.1737273 55.7522,22.660697 C55.7522,10.1480909 45.6263818,-0.000212121212 33.1133515,-0.000212121212 C20.6007455,-0.000212121212 10.4634727,10.1370606 10.4634727,22.6496667 C10.4634727,27.0100303 11.7124424,31.0696061 13.8535939,34.5267576 L1.53062424,46.838697 C-0.509981818,48.879303 -0.509981818,52.1917879 1.53062424,54.2323939" id="Fill-1" fill="#45F4B5" mask="url(#mask-2)"></path>
    </g>
</svg>